<svg width="125" height="126" viewBox="0 0 125 126" fill="none" xmlns="http://www.w3.org/2000/svg">
<path d="M5.77605 1.0168C4.17198 1.55603 2.78849 2.60549 1.83691 4.00488C0.885318 5.40428 0.417936 7.07668 0.506145 8.76667V86.2653C0.506145 88.3207 1.32265 90.2919 2.77603 91.7453C4.22941 93.1987 6.20062 94.0152 8.25601 94.0152H47.0053V109.515H31.5056C22.9808 109.515 16.0059 116.49 16.0059 125.015H109.004C109.004 116.49 102.029 109.515 93.5045 109.515H78.0048V94.0152H116.754C118.81 94.0152 120.781 93.1987 122.234 91.7453C123.687 90.2919 124.504 88.3207 124.504 86.2653V8.76667C124.504 6.71127 123.687 4.74007 122.234 3.28669C120.781 1.8333 118.81 1.0168 116.754 1.0168L8.25601 1.0168C7.79196 0.974868 7.32508 0.974868 6.86103 1.0168C6.55132 0.998186 6.24077 0.998186 5.93105 1.0168L5.77605 1.0168ZM16.0059 16.5165H109.004V78.5154H16.0059V16.5165Z" fill="#0642B4"/>
</svg>
